<svg width="144" height="163" viewBox="0 0 144 163" fill="none" xmlns="http://www.w3.org/2000/svg">
<g clip-path="url(#clip0_1119_389)">
<path d="M97.9512 100.981C176.468 154.643 150.949 174.638 48.9756 156.427C22.3313 151.668 0 131.603 0 100.981C0 70.3598 21.9271 45.5361 48.9756 45.5361C76.024 45.5361 73.0353 83.9529 97.9512 100.981Z" fill="#3F3D56"/>
<path opacity="0.1" d="M104.971 153.258C122.102 153.258 135.989 151.989 135.989 150.424C135.989 148.858 122.102 147.589 104.971 147.589C87.8403 147.589 73.9531 148.858 73.9531 150.424C73.9531 151.989 87.8403 153.258 104.971 153.258Z" fill="black"/>
<path opacity="0.1" d="M43.7969 59.819C52.8766 59.819 60.2372 58.5498 60.2372 56.9842C60.2372 55.4186 52.8766 54.1494 43.7969 54.1494C34.7172 54.1494 27.3566 55.4186 27.3566 56.9842C27.3566 58.5498 34.7172 59.819 43.7969 59.819Z" fill="black"/>
<path opacity="0.1" d="M42.9353 63.9626C35.8812 63.9612 28.9707 65.9982 23.002 69.8382C17.0332 73.6783 12.2498 79.1647 9.20415 85.6638C12.7051 81.7132 16.9785 78.5568 21.7483 76.3985C26.5181 74.2403 31.6781 73.1281 36.8949 73.1341C57.5414 73.1341 74.2796 90.2312 74.2796 111.32C74.288 117.026 73.0393 122.66 70.626 127.806C76.876 120.787 80.3334 111.637 80.3199 102.149C80.3199 81.0598 63.5817 63.9626 42.9353 63.9626Z" fill="black"/>
<path opacity="0.3" d="M74.2796 111.154C74.2881 116.859 73.0393 122.493 70.626 127.639C67.1251 131.589 62.8517 134.746 58.0819 136.904C53.3121 139.062 48.1521 140.175 42.9353 140.169C22.2888 140.169 5.55056 123.071 5.55056 101.982C5.54213 96.2768 6.79085 90.6426 9.20415 85.4971C12.7051 81.5465 16.9785 78.3901 21.7483 76.2318C26.5181 74.0735 31.6781 72.9614 36.8949 72.9673C57.5414 72.9673 74.2796 90.0645 74.2796 111.154Z" fill="#FF0043"/>
<path d="M42.9353 140.356C22.22 140.356 5.36684 123.142 5.36684 101.982C5.35179 96.248 6.60701 90.5845 9.0385 85.416C12.0991 78.885 16.906 73.3716 22.9041 69.5127C28.9022 65.6538 35.8466 63.6069 42.9353 63.6083C63.6506 63.6083 80.5037 80.8228 80.5037 101.982C80.504 107.022 79.5325 112.012 77.6446 116.668C75.7567 121.324 72.9895 125.554 69.5009 129.118C66.0123 132.681 61.8706 135.508 57.3125 137.436C52.7543 139.364 47.8689 140.357 42.9353 140.356ZM42.9353 63.9835C28.7013 63.9835 15.526 72.4599 9.36982 85.5783C6.96213 90.6962 5.71923 96.3042 5.73422 101.982C5.73422 122.935 22.4225 139.981 42.9353 139.981C47.8207 139.981 52.6583 138.999 57.1719 137.089C61.6855 135.18 65.7866 132.381 69.2411 128.852C72.6956 125.324 75.4358 121.135 77.3052 116.524C79.1746 111.914 80.1366 106.972 80.1363 101.982C80.1363 81.0297 63.448 63.9835 42.9353 63.9835V63.9835Z" fill="white"/>
<path d="M128.465 140.841C125.75 144.468 126.06 149.37 126.06 149.37C126.06 149.37 130.773 148.392 133.488 144.764C136.203 141.137 135.893 136.235 135.893 136.235C135.893 136.235 131.18 137.214 128.465 140.841Z" fill="#D0CDE1"/>
<path d="M130.244 141.656C129.717 146.19 126.151 149.485 126.151 149.485C126.151 149.485 123.438 145.429 123.965 140.894C124.492 136.36 128.059 133.065 128.059 133.065C128.059 133.065 130.771 137.122 130.244 141.656Z" fill="#FF0043"/>
<path d="M31.7468 35.4413C40.2665 35.4413 47.173 28.3867 47.173 19.6843C47.173 10.982 40.2665 3.92737 31.7468 3.92737C23.2272 3.92737 16.3207 10.982 16.3207 19.6843C16.3207 28.3867 23.2272 35.4413 31.7468 35.4413Z" fill="#FF6584"/>
<path d="M65.192 35.7496C65.1995 51.4887 56.0417 56.988 44.7429 56.9936C44.4805 56.9938 44.2193 56.9909 43.9593 56.9851C43.4357 56.9738 42.9175 56.9497 42.4047 56.9127C32.2068 56.1803 24.2806 50.4072 24.2736 35.7699C24.2664 20.622 43.2109 1.49629 44.6317 0.0821254C44.6329 0.0821254 44.6329 0.0821252 44.6342 0.08084C44.6882 0.0269434 44.7158 0 44.7158 0C44.7158 0 65.1845 20.0117 65.192 35.7496Z" fill="#FF0043"/>
<path d="M43.9971 54.5865L51.4748 43.9036L43.9788 55.7588L43.9593 56.985C43.4357 56.9737 42.9175 56.9496 42.4047 56.9127L43.2034 41.1667L43.1971 41.0449L43.2109 41.0218L43.2868 39.5339L35.7607 27.6566L43.3088 38.4193L43.3278 38.7348L43.9312 26.8381L37.4874 14.564L44.0093 24.7474L44.6317 0.0820841L44.6342 0L44.6342 0.0807986L44.538 19.5319L50.9422 11.8176L44.5112 21.2071L44.3467 31.8594L50.3278 21.6339L44.3236 33.4255L44.2322 39.3487L52.9124 25.1149L44.1993 41.4151L43.9971 54.5865Z" fill="#3F3D56"/>
<path d="M105.246 44.7671C103.286 41.3829 99.4063 41.2252 99.4063 41.2252C99.4063 41.2252 95.6261 40.7314 93.2012 45.8856C90.9409 50.6898 87.8214 55.3283 92.6989 56.453L93.58 53.652L94.1256 56.6615C94.8201 56.7125 95.5167 56.7247 96.2125 56.6979C101.436 56.5257 106.41 56.7483 106.25 54.8337C106.037 52.2886 107.133 48.0234 105.246 44.7671Z" fill="#2F2E41"/>
<path d="M96.5958 76.5233L97.1002 81.6753L108.785 80.3874L109.037 76.5233H96.5958Z" fill="#A0616A"/>
<path d="M95.3349 79.3569L94.9986 82.3623C94.9986 82.3623 91.1317 87.8578 91.4679 97.3031C91.8042 106.749 86.1719 148.738 90.207 149.081C94.242 149.424 101.472 149.94 101.808 148.652C102.144 147.364 102.817 98.5053 102.817 98.5053C102.817 98.5053 104.582 148.713 107.608 148.884C110.635 149.056 120.806 149.4 120.806 148.112C120.806 146.824 111.896 89.3175 111.896 89.3175L110.466 84.5089L109.037 78.5841C109.037 78.5841 100.127 80.1297 97.6887 79.5286C95.2508 78.9276 95.3349 79.3569 95.3349 79.3569Z" fill="#2F2E41"/>
<path d="M99.37 55.5717C102.341 55.5717 104.75 53.1113 104.75 50.0762C104.75 47.0411 102.341 44.5807 99.37 44.5807C96.3986 44.5807 93.9899 47.0411 93.9899 50.0762C93.9899 53.1113 96.3986 55.5717 99.37 55.5717Z" fill="#A0616A"/>
<path d="M108.785 59.1782L107.764 60.6963L107.11 61.6675L106.011 63.2998L100.547 63.7291C100.547 63.7291 99.2195 63.2912 97.6879 62.6515C97.1221 62.4145 96.5278 62.15 95.9628 61.8693C93.7713 60.7822 92.0127 59.4555 93.9899 58.5771C94.3409 58.4231 94.6782 58.2381 94.9978 58.0241C95.2886 57.83 95.5592 57.6062 95.8056 57.3561C96.3121 56.8377 96.6871 56.2008 96.8981 55.5008C97.1091 54.8008 97.1496 54.0588 97.0162 53.3392L102.312 52.5664C102.158 53.9386 103.494 55.4352 104.991 56.6571C105.483 57.0598 105.993 57.4316 106.473 57.7596C107.732 58.62 108.785 59.1782 108.785 59.1782Z" fill="#A0616A"/>
<path d="M101.556 60.8096C101.556 60.8096 96.3857 59.908 95.2088 58.0189C95.2088 58.0189 90.1229 58.6629 90.5432 61.4107C90.9635 64.1584 95.1668 79.1852 95.1668 79.1852C95.1668 79.1852 105.675 77.1244 109.542 78.67L111.896 59.5216C111.896 59.5216 111.055 57.6325 109.458 58.1477C107.86 58.6629 107.23 58.1907 107.23 58.1907C107.23 58.1907 105.423 60.8096 101.556 60.8096Z" fill="#D0CDE1"/>
<path d="M106.263 90.949C106.263 90.949 109.878 95.0706 107.86 95.7575C105.843 96.4445 103.405 93.0098 103.405 93.0098L106.263 90.949Z" fill="#A0616A"/>
<path d="M107.44 91.2925C107.44 91.2925 104.498 93.3533 105.591 94.7272C106.684 96.1011 110.466 93.525 110.466 93.0098C110.466 92.4946 107.44 91.2925 107.44 91.2925Z" fill="#A0616A"/>
<path d="M100.211 80.1298L97.7727 80.5591L96.1755 68.4518C96.2677 66.2553 96.1966 64.0548 95.9628 61.8693C95.7846 60.4095 95.487 59.0064 94.9978 58.0241C95.2886 57.83 95.5592 57.6062 95.8056 57.3561C96.3907 58.3032 97.4583 60.309 97.6878 62.6515C97.7478 63.2381 97.7481 63.8294 97.6887 64.4161C97.2684 68.4518 97.3524 69.2246 97.3524 69.2246L100.211 80.1298Z" fill="#2F2E41"/>
<path d="M94.5783 58.7488C94.5783 58.7488 90.6273 57.6325 90.291 60.0368C89.9548 62.4411 90.3751 68.6235 91.2998 70.9419C92.2245 73.2603 95.4189 80.8166 95.4189 80.8166C95.4189 80.8166 101.219 88.3729 101.472 90.1761C101.724 91.9794 102.985 93.8684 102.985 93.8684L107.02 91.2065L99.1178 77.5537L95.6711 68.1083C95.6711 68.1083 97.1002 59.5216 94.5783 58.7488Z" fill="#D0CDE1"/>
<path d="M110.046 59.0923L111.896 59.5216C111.896 59.5216 113.577 66.9062 112.904 70.8561C112.232 74.806 112.148 76.1798 112.148 76.1798L111.559 87.4284C111.559 87.4284 111.727 94.6413 110.551 93.525C109.374 92.4087 107.02 91.8935 107.02 91.8935C107.02 91.8935 107.272 88.7165 108.197 87.9437C108.197 87.9437 109.29 82.0188 108.617 79.4428C107.945 76.8668 110.046 59.0923 110.046 59.0923Z" fill="#D0CDE1"/>
<path d="M110.719 67.4214L108.575 80.0868L107.272 79.5287L109.542 67.4214L107.11 61.6675L104.991 56.6571C105.483 57.0598 105.993 57.4316 106.473 57.7596L107.764 60.6963L110.719 67.4214Z" fill="#2F2E41"/>
<path d="M104.38 44.441L100.547 42.3904L95.2543 43.2293L94.1593 48.1694L96.8851 48.0622L97.6467 46.2473V48.0324L98.9044 47.9829L99.6344 45.0934L100.091 48.1694L104.562 48.0761L104.38 44.441Z" fill="#2F2E41"/>
<path d="M96.8084 150.424C98.251 150.424 99.4204 149.976 99.4204 149.423C99.4204 148.871 98.251 148.423 96.8084 148.423C95.3658 148.423 94.1964 148.871 94.1964 149.423C94.1964 149.976 95.3658 150.424 96.8084 150.424Z" fill="#2F2E41"/>
<path d="M114.44 150.424C115.882 150.424 117.052 149.976 117.052 149.423C117.052 148.871 115.882 148.423 114.44 148.423C112.997 148.423 111.828 148.871 111.828 149.423C111.828 149.976 112.997 150.424 114.44 150.424Z" fill="#2F2E41"/>
<path d="M48.4108 121.733C45.739 123.509 42.6599 124.543 39.4775 124.732C36.2952 124.921 33.1194 124.26 30.2638 122.813L30.6681 121.97C34.1102 123.698 38.0116 124.225 41.7752 123.472C45.5387 122.719 48.9569 120.727 51.5067 117.801C54.0564 114.875 55.5972 111.176 55.8931 107.27C56.189 103.365 55.2238 99.4675 53.1451 96.1755C51.0665 92.8835 47.989 90.378 44.3837 89.0425C40.7785 87.707 36.844 87.615 33.1827 88.7807C29.5214 89.9464 26.335 92.3055 24.1111 95.497C21.8872 98.6884 20.7485 102.536 20.8692 106.452L19.9512 106.48C19.8495 103.186 20.5949 99.9219 22.1131 97.0135C23.6313 94.1051 25.8693 91.654 28.604 89.9044C31.3387 88.1549 34.4746 87.168 37.699 87.0422C40.9235 86.9164 44.1239 87.656 46.9813 89.1874C49.8387 90.7188 52.2532 92.9884 53.9842 95.77C55.7152 98.5517 56.7022 101.748 56.8469 105.041C56.9915 108.334 56.2887 111.607 54.8085 114.536C53.3283 117.465 51.1225 119.946 48.4108 121.733Z" fill="white"/>
<path d="M40.1029 104.768C37.387 105.382 33.7724 105.756 31.1387 105.365L34.4449 107.937L25.189 114.035L25.6868 114.823L34.9427 108.725L35.8732 112.863C36.611 110.251 38.4356 107.042 40.1029 104.768Z" fill="white"/>
</g>
<defs>
<clipPath id="clip0_1119_389">
<rect width="144" height="163" fill="white"/>
</clipPath>
</defs>
</svg>
