<svg width="619" height="544" viewBox="0 0 619 544" fill="none" xmlns="http://www.w3.org/2000/svg">
<g clip-path="url(#clip0_1119_139)">
<path d="M460.58 426.367H268.654C265.59 426.363 262.652 425.056 260.486 422.732C258.319 420.409 257.1 417.259 257.097 413.973V265.996C257.1 262.71 258.319 259.56 260.486 257.236C262.652 254.913 265.59 253.606 268.654 253.602H460.58C463.644 253.606 466.582 254.913 468.748 257.237C470.915 259.56 472.134 262.71 472.138 265.996V413.973C472.134 417.259 470.915 420.409 468.748 422.732C466.582 425.056 463.644 426.363 460.58 426.367V426.367Z" fill="#E6E6E6"/>
<path d="M272.202 416.487H457.032C458.518 416.487 459.944 415.854 460.995 414.727C462.045 413.6 462.636 412.071 462.636 410.477V269.491C462.636 267.898 462.045 266.369 460.995 265.242C459.944 264.115 458.518 263.482 457.032 263.482H272.202C270.716 263.482 269.29 264.115 268.24 265.242C267.189 266.369 266.598 267.898 266.598 269.491V410.477C266.598 412.071 267.189 413.6 268.24 414.727C269.29 415.854 270.716 416.487 272.202 416.487Z" fill="white"/>
<path d="M203.483 227.707H11.5575C8.49336 227.703 5.55566 226.396 3.38895 224.072C1.22224 221.749 0.00346131 218.599 0 215.313V67.3366C0.00345946 64.0506 1.22224 60.9003 3.38895 58.5768C5.55566 56.2533 8.49336 54.9463 11.5575 54.9426H203.483C206.547 54.9463 209.485 56.2533 211.652 58.5768C213.818 60.9003 215.037 64.0506 215.04 67.3366V215.313C215.037 218.599 213.818 221.749 211.652 224.072C209.485 226.396 206.547 227.703 203.483 227.707V227.707Z" fill="#E6E6E6"/>
<path d="M15.1052 217.827H199.935C201.422 217.827 202.847 217.194 203.898 216.067C204.949 214.94 205.539 213.411 205.539 211.818V70.8314C205.539 69.2377 204.949 67.7093 203.898 66.5823C202.847 65.4554 201.422 64.8223 199.935 64.8223H15.1052C13.619 64.8223 12.1937 65.4554 11.1428 66.5823C10.0919 67.7093 9.50153 69.2377 9.50153 70.8314V211.818C9.50153 213.411 10.0919 214.94 11.1428 216.067C12.1937 217.194 13.619 217.827 15.1052 217.827Z" fill="white"/>
<path d="M435.001 307.289H316.938C316.384 307.289 315.836 307.406 315.324 307.633C314.813 307.861 314.348 308.194 313.956 308.614C313.565 309.034 313.254 309.532 313.042 310.081C312.83 310.629 312.721 311.217 312.721 311.811C312.721 312.405 312.83 312.993 313.042 313.541C313.254 314.09 313.565 314.588 313.956 315.008C314.348 315.428 314.813 315.761 315.324 315.988C315.836 316.216 316.384 316.333 316.938 316.333H435.001C436.119 316.333 437.191 315.856 437.982 315.008C438.773 314.16 439.217 313.01 439.217 311.811C439.217 310.612 438.773 309.462 437.982 308.614C437.191 307.766 436.119 307.289 435.001 307.289V307.289Z" fill="#E6E6E6"/>
<path d="M316.938 335.115C316.384 335.115 315.836 335.232 315.324 335.459C314.813 335.686 314.348 336.019 313.956 336.439C313.565 336.859 313.254 337.358 313.042 337.906C312.83 338.455 312.721 339.043 312.721 339.637C312.721 340.23 312.83 340.818 313.042 341.367C313.254 341.916 313.565 342.414 313.956 342.834C314.348 343.254 314.813 343.587 315.324 343.814C315.836 344.041 316.384 344.158 316.938 344.158H435.001C436.119 344.158 437.191 343.682 437.982 342.834C438.773 341.986 439.217 340.836 439.217 339.637C439.217 338.437 438.773 337.287 437.982 336.439C437.191 335.591 436.119 335.115 435.001 335.115H316.938Z" fill="#E6E6E6"/>
<path d="M316.938 362.94C315.82 362.94 314.747 363.417 313.956 364.265C313.165 365.113 312.721 366.263 312.721 367.462C312.721 368.661 313.165 369.811 313.956 370.659C314.747 371.507 315.82 371.984 316.938 371.984H435.001C436.119 371.984 437.191 371.507 437.982 370.659C438.773 369.811 439.217 368.661 439.217 367.462C439.217 366.263 438.773 365.113 437.982 364.265C437.191 363.417 436.119 362.94 435.001 362.94H316.938Z" fill="#E6E6E6"/>
<path d="M294.558 317.724C297.424 317.724 299.747 315.232 299.747 312.159C299.747 309.085 297.424 306.594 294.558 306.594C291.692 306.594 289.368 309.085 289.368 312.159C289.368 315.232 291.692 317.724 294.558 317.724Z" fill="#FF0043"/>
<path d="M294.558 345.549C297.424 345.549 299.747 343.058 299.747 339.984C299.747 336.911 297.424 334.419 294.558 334.419C291.692 334.419 289.368 336.911 289.368 339.984C289.368 343.058 291.692 345.549 294.558 345.549Z" fill="#E6E6E6"/>
<path d="M294.558 373.375C297.424 373.375 299.747 370.884 299.747 367.81C299.747 364.736 297.424 362.245 294.558 362.245C291.692 362.245 289.368 364.736 289.368 367.81C289.368 370.884 291.692 373.375 294.558 373.375Z" fill="#E6E6E6"/>
<path d="M387.97 311.811C387.97 312.405 387.861 312.993 387.649 313.541C387.437 314.09 387.127 314.588 386.735 315.008C386.344 315.428 385.879 315.761 385.367 315.988C384.856 316.216 384.307 316.333 383.754 316.333H317.09C316.048 316.349 315.036 315.961 314.24 315.241C313.444 314.52 312.918 313.516 312.758 312.412C312.679 311.773 312.729 311.124 312.902 310.507C313.076 309.891 313.371 309.321 313.767 308.836C314.162 308.351 314.65 307.962 315.197 307.696C315.743 307.429 316.337 307.29 316.938 307.289H383.754C384.872 307.289 385.944 307.766 386.735 308.614C387.526 309.462 387.97 310.612 387.97 311.811V311.811Z" fill="#FF0043"/>
<path d="M364.617 234.595C373.932 234.595 381.483 226.497 381.483 216.508C381.483 206.519 373.932 198.422 364.617 198.422C355.302 198.422 347.751 206.519 347.751 216.508C347.751 226.497 355.302 234.595 364.617 234.595Z" fill="#E6E6E6"/>
<path d="M372.941 217.957C373.687 213.027 370.565 208.382 365.968 207.582C361.371 206.782 357.039 210.13 356.293 215.06C355.547 219.99 358.669 224.635 363.266 225.435C367.864 226.235 372.195 222.887 372.941 217.957Z" fill="white"/>
<path d="M28.7683 137.028C27.6601 137.028 26.5972 137.5 25.8136 138.341C25.0299 139.181 24.5897 140.321 24.5897 141.509C24.5897 142.698 25.0299 143.837 25.8136 144.678C26.5972 145.518 27.6601 145.99 28.7683 145.99H186.272C187.38 145.99 188.443 145.518 189.227 144.678C190.011 143.837 190.451 142.698 190.451 141.509C190.451 140.321 190.011 139.181 189.227 138.341C188.443 137.5 187.38 137.028 186.272 137.028H28.7683Z" fill="#E6E6E6"/>
<path d="M28.7683 164.604C27.6601 164.604 26.5972 165.076 25.8136 165.916C25.0299 166.757 24.5897 167.896 24.5897 169.085C24.5897 170.273 25.0299 171.413 25.8136 172.253C26.5972 173.094 27.6601 173.566 28.7683 173.566H186.272C187.38 173.566 188.443 173.094 189.227 172.253C190.011 171.413 190.451 170.273 190.451 169.085C190.451 167.896 190.011 166.757 189.227 165.916C188.443 165.076 187.38 164.604 186.272 164.604H28.7683Z" fill="#E6E6E6"/>
<path d="M99.163 193.559C98.0547 193.559 96.9918 194.031 96.2082 194.871C95.4245 195.711 94.9843 196.851 94.9843 198.04C94.9843 199.228 95.4245 200.368 96.2082 201.208C96.9918 202.049 98.0547 202.521 99.163 202.521H115.878C116.986 202.521 118.049 202.049 118.832 201.208C119.616 200.368 120.056 199.228 120.056 198.04C120.056 196.851 119.616 195.711 118.832 194.871C118.049 194.031 116.986 193.559 115.878 193.559H99.163Z" fill="#FF0043"/>
<path d="M85.1227 80.1284C84.7818 80.1288 84.4549 80.2742 84.2139 80.5327C83.9728 80.7912 83.8373 81.1416 83.8369 81.5072V116.508C83.8373 116.873 83.9728 117.224 84.2139 117.482C84.4549 117.741 84.7818 117.886 85.1227 117.887H129.918C130.259 117.886 130.586 117.741 130.827 117.482C131.068 117.224 131.203 116.873 131.204 116.508V81.5072C131.203 81.1416 131.068 80.7912 130.827 80.5327C130.586 80.2742 130.259 80.1288 129.918 80.1284L85.1227 80.1284Z" fill="#FF0043"/>
<path d="M107.52 102.72C111.426 102.72 114.592 99.3247 114.592 95.1366C114.592 90.9484 111.426 87.5532 107.52 87.5532C103.615 87.5532 100.449 90.9484 100.449 95.1366C100.449 99.3247 103.615 102.72 107.52 102.72Z" fill="white"/>
<path d="M119.092 114.44C119.095 115.638 118.83 116.82 118.321 117.887H96.72C96.1696 116.73 95.9051 115.442 95.952 114.145C95.9989 112.848 96.3556 111.585 96.9878 110.478C97.6201 109.371 98.5068 108.457 99.563 107.823C100.619 107.189 101.81 106.856 103.02 106.856H112.02C113.895 106.855 115.693 107.653 117.019 109.073C118.345 110.494 119.091 112.421 119.092 114.431V114.44Z" fill="white"/>
<path d="M107.52 102.72C111.426 102.72 114.592 99.3247 114.592 95.1366C114.592 90.9484 111.426 87.5532 107.52 87.5532C103.615 87.5532 100.449 90.9484 100.449 95.1366C100.449 99.3247 103.615 102.72 107.52 102.72Z" fill="white"/>
<path d="M119.092 114.44C119.095 115.638 118.83 116.82 118.321 117.887H96.72C96.1696 116.73 95.9051 115.442 95.952 114.145C95.9989 112.848 96.3556 111.585 96.9878 110.478C97.6201 109.371 98.5068 108.457 99.563 107.823C100.619 107.189 101.81 106.856 103.02 106.856H112.02C113.895 106.855 115.693 107.653 117.019 109.073C118.345 110.494 119.091 112.421 119.092 114.431V114.44Z" fill="white"/>
<path d="M107.52 35.8486C116.752 35.8486 124.235 27.8236 124.235 17.9243C124.235 8.02497 116.752 0 107.52 0C98.289 0 90.8055 8.02497 90.8055 17.9243C90.8055 27.8236 98.289 35.8486 107.52 35.8486Z" fill="#E6E6E6"/>
<path d="M107.52 26.8864C112.136 26.8864 115.878 22.8739 115.878 17.9243C115.878 12.9746 112.136 8.96216 107.52 8.96216C102.905 8.96216 99.1629 12.9746 99.1629 17.9243C99.1629 22.8739 102.905 26.8864 107.52 26.8864Z" fill="#FF0043"/>
<path d="M524.026 534.246L516.018 534.245L512.21 501.123L524.028 501.124L524.026 534.246Z" fill="#FFB8B8"/>
<path d="M510.298 531.792H525.742V542.219H500.574C500.574 540.85 500.826 539.494 501.314 538.229C501.803 536.964 502.519 535.814 503.422 534.846C504.325 533.878 505.397 533.11 506.577 532.586C507.757 532.062 509.021 531.792 510.298 531.792V531.792Z" fill="#2F2E41"/>
<path d="M567.189 534.246L559.181 534.245L555.373 501.123L567.192 501.124L567.189 534.246Z" fill="#FFB8B8"/>
<path d="M553.461 531.792H568.905V542.219H543.737C543.737 540.85 543.989 539.494 544.478 538.229C544.966 536.964 545.682 535.814 546.585 534.846C547.488 533.878 548.56 533.11 549.74 532.586C550.92 532.062 552.184 531.792 553.461 531.792V531.792Z" fill="#2F2E41"/>
<path d="M543.737 298.78C553.238 298.78 560.941 290.52 560.941 280.331C560.941 270.142 553.238 261.882 543.737 261.882C534.236 261.882 526.533 270.142 526.533 280.331C526.533 290.52 534.236 298.78 543.737 298.78Z" fill="#FFB8B8"/>
<path d="M484.911 400.649C485.031 399.627 485.358 398.646 485.87 397.775C486.382 396.904 487.066 396.164 487.874 395.606C488.681 395.049 489.593 394.689 490.544 394.55C491.496 394.412 492.464 394.499 493.381 394.805L502.996 382.446L511.425 386.879L497.618 404.129C497.036 405.746 495.922 407.079 494.485 407.874C493.048 408.669 491.389 408.871 489.823 408.442C488.257 408.013 486.891 406.982 485.986 405.546C485.081 404.11 484.698 402.367 484.911 400.649V400.649Z" fill="#FFB8B8"/>
<path d="M567.658 413.149C567.249 412.218 567.034 411.201 567.031 410.172C567.027 409.142 567.233 408.124 567.636 407.189C568.039 406.254 568.628 405.426 569.362 404.761C570.095 404.097 570.956 403.614 571.883 403.345L573.813 387.383L583.145 386.275L580.124 408.775C580.442 410.475 580.167 412.241 579.353 413.738C578.538 415.235 577.239 416.36 575.703 416.899C574.166 417.439 572.499 417.355 571.016 416.663C569.533 415.972 568.339 414.722 567.658 413.149L567.658 413.149Z" fill="#FFB8B8"/>
<path d="M558.115 315.178C559.03 313.918 560.238 312.939 561.618 312.341C562.999 311.742 564.502 311.544 565.976 311.767C567.45 311.991 568.844 312.627 570.015 313.612C571.187 314.597 572.095 315.897 572.649 317.379L586.75 355.117C588.191 358.973 588.651 363.171 588.082 367.28L583.489 400.45C583.429 400.878 583.285 401.287 583.064 401.65C582.844 402.012 582.553 402.319 582.212 402.55C581.871 402.781 581.487 402.93 581.087 402.987C580.687 403.044 580.28 403.008 579.895 402.881L573.843 400.888C573.217 400.682 572.677 400.246 572.319 399.657C571.961 399.069 571.807 398.364 571.883 397.666C574.019 378.138 571.196 358.354 563.713 340.405L557.065 324.459C556.439 322.956 556.205 321.298 556.39 319.662C556.575 318.027 557.171 316.477 558.115 315.178V315.178Z" fill="#FF0043"/>
<path d="M547.926 298.779C550.515 298.839 553.087 298.311 555.472 297.229C557.857 296.148 560.002 294.537 561.766 292.503C563.529 290.469 564.871 288.057 565.704 285.428C566.536 282.798 566.84 280.009 566.596 277.244C566.352 274.479 565.564 271.801 564.286 269.385C563.008 266.97 561.268 264.872 559.179 263.229C557.091 261.586 554.702 260.436 552.17 259.854C549.638 259.272 547.019 259.271 544.486 259.851C540.703 257.388 536.304 255.73 531.896 256.152C527.487 256.573 523.127 259.38 521.479 263.785C519.83 268.19 521.601 273.996 525.7 275.786C528.328 276.934 531.296 276.377 534.101 275.914C536.905 275.452 539.965 275.15 542.406 276.701C544.846 278.253 545.944 282.414 543.758 284.354C542.599 285.424 541.771 286.846 541.385 288.432C540.999 290.019 541.073 291.693 541.597 293.233C542.696 296.28 545.695 298.728 547.926 298.779Z" fill="#2F2E41"/>
<path d="M569.271 399.919L572.322 524.114C572.333 524.528 572.263 524.939 572.118 525.323C571.972 525.707 571.755 526.054 571.478 526.343C571.202 526.633 570.873 526.857 570.511 527.004C570.15 527.15 569.765 527.215 569.379 527.193L559.326 526.643C558.684 526.608 558.074 526.338 557.596 525.878C557.118 525.417 556.802 524.795 556.701 524.114L544.744 443.449C544.693 443.104 544.531 442.789 544.286 442.558C544.042 442.327 543.73 442.195 543.404 442.184C543.078 442.173 542.759 442.284 542.502 442.498C542.244 442.713 542.064 443.017 541.993 443.358L525.807 521.024C525.721 521.439 525.553 521.83 525.315 522.17C525.077 522.51 524.775 522.793 524.428 522.998C524.08 523.204 523.696 523.328 523.301 523.363C522.906 523.398 522.508 523.342 522.134 523.199L512.157 522.546C511.58 522.326 511.086 521.909 510.751 521.359C510.415 520.809 510.258 520.157 510.301 519.501L519.01 398.744L569.271 399.919Z" fill="#2F2E41"/>
<path d="M574.168 340.931C575.852 322.111 562.948 305.088 545.361 303.749C537.784 303.172 526.02 302.966 522.142 313.616C510.46 345.701 530.91 344.921 523.864 372.719C516.819 400.516 510.596 402.11 520.263 404.117C529.931 406.124 573.405 417.973 571.62 398.408C570.522 386.382 572.49 359.704 574.168 340.931Z" fill="#FF0043"/>
<path d="M524.211 310.353C525.599 309.776 527.105 309.603 528.576 309.85C530.047 310.097 531.431 310.756 532.589 311.76C533.746 312.764 534.637 314.078 535.169 315.569C535.702 317.06 535.859 318.675 535.624 320.251L530.133 357.051C529.194 363.344 526.713 369.256 522.943 374.182L505.109 397.486C504.853 397.82 504.533 398.092 504.17 398.281C503.808 398.47 503.411 398.574 503.008 398.584C502.604 398.594 502.204 398.51 501.833 398.339C501.463 398.167 501.131 397.912 500.861 397.59L496.625 392.546C496.187 392.023 495.933 391.353 495.908 390.65C495.882 389.948 496.088 389.258 496.488 388.701L497.736 386.965C508.11 372.527 514.655 355.352 516.679 337.255L518.862 317.737C519.045 316.101 519.639 314.55 520.582 313.249C521.524 311.949 522.778 310.947 524.211 310.353V310.353Z" fill="#FF0043"/>
<path d="M618.3 544H437.581C437.396 544 437.218 543.921 437.086 543.78C436.955 543.639 436.881 543.448 436.881 543.249C436.881 543.049 436.955 542.858 437.086 542.718C437.218 542.577 437.396 542.498 437.581 542.498H618.3C618.485 542.498 618.663 542.577 618.795 542.718C618.926 542.858 619 543.049 619 543.249C619 543.448 618.926 543.639 618.795 543.78C618.663 543.921 618.485 544 618.3 544Z" fill="#CCCCCC"/>
</g>
<defs>
<clipPath id="clip0_1119_139">
<rect width="619" height="544" fill="white"/>
</clipPath>
</defs>
</svg>
