<svg width="300" height="260" viewBox="0 0 300 260" fill="none" xmlns="http://www.w3.org/2000/svg">
<g clip-path="url(#clip0_949_3)">
<path opacity="0.1" d="M21.696 104.335C28.0091 121.169 19.9542 140.559 10.4875 155.175C7.31279 160.067 3.823 165.188 3.37769 171.346C2.84756 178.856 7.15526 185.762 12.2688 190.275C21.59 198.5 34.3253 201.043 45.4187 196.894C55.0065 193.318 63.0675 185.211 72.7371 181.942C88.9198 176.474 106.06 185.54 119.907 196.83C129.707 204.819 140.203 214.532 152.018 212.826C160.336 211.625 167.394 204.734 172.181 196.616C174.492 192.682 176.504 188.308 179.872 185.662C181.875 184.088 184.225 183.255 186.579 182.661C208.057 177.243 230.847 190.468 252.04 183.666C266.353 179.071 277.768 165.714 284.862 150.34C291.957 134.966 295.271 117.6 298.031 100.394C299.991 88.1675 301.618 74.9749 297.122 63.7242C292.354 51.8227 281.318 44.6095 270.228 43.2612C259.137 41.913 248.011 45.6501 237.793 50.9214C225.024 57.5124 212.51 66.7389 198.572 66.7711C189.081 66.7926 180.033 62.4797 170.957 59.2146C155.756 53.7323 140.003 51.0073 124.272 48.4932C109.219 46.0864 94.0211 43.8442 78.8775 45.2746C68.1628 46.2795 58.7022 51.1146 48.3056 53.3497C41.529 54.8088 34.7191 53.7073 28.0697 56.1785C19.8905 59.2003 11.4569 66.2132 11.0055 77.2458C10.5784 87.7348 18.3456 95.3986 21.696 104.335Z" fill="black"/>
<g opacity="0.5">
<path opacity="0.5" d="M211.413 65.5015C209.899 66.0165 208.018 67.3469 207.097 70.9981C205.279 78.1505 209.484 83.0428 208.105 90.4705C207.729 92.4454 207.006 94.3054 205.985 95.9314C204.298 98.6314 202.462 99.9117 200.687 101.803C198.43 104.22 196.813 107.354 196.031 110.83C195.173 114.666 195.101 118.688 195.822 122.563C196.455 125.803 197.533 128.16 198.472 130.789C199.641 134.143 200.554 137.613 201.199 141.16C201.557 142.883 201.76 144.646 201.804 146.42C201.835 148.648 201.541 151.069 201.253 153.458L198.687 174.597C198.345 177.411 198 180.272 197.987 182.951C197.969 186.044 198.39 188.701 198.808 191.294C199.717 196.887 200.678 202.691 202.747 205.642C204.816 208.592 208.324 207.569 210.483 201.547C212.537 195.825 212.58 188.172 214.391 182.05C217.245 172.394 222.922 171.107 226.069 161.905C229.099 153.079 228.166 142.236 229.705 132.18C230.801 124.966 233.137 118.386 234.521 111.259C236.511 100.992 236.315 90.3346 234.724 82.4455C233.134 74.5565 230.28 69.1385 227.13 65.0295C225.794 63.2879 224.367 61.7394 222.689 61.5856C220.904 61.4247 219.356 64.0889 217.584 64.8721C215.53 65.7769 213.482 64.8078 211.413 65.5015Z" fill="#FF6366"/>
<path opacity="0.5" d="M221.074 62.0863C221.074 62.0863 218.045 153.379 205.343 207.215" stroke="#535461" stroke-width="2" stroke-miterlimit="10"/>
<path opacity="0.5" d="M207.018 71.4452C207.018 71.4452 220.583 86.0396 218.023 113.848" stroke="#535461" stroke-width="2" stroke-miterlimit="10"/>
<path opacity="0.5" d="M195.622 112.972C195.622 112.972 217.917 118.265 216.263 134.007" stroke="#535461" stroke-width="2" stroke-miterlimit="10"/>
<path opacity="0.5" d="M234.751 82.2274C234.751 82.2274 225.733 91.5506 217.693 117.957" stroke="#535461" stroke-width="2" stroke-miterlimit="10"/>
<path opacity="0.5" d="M225.933 162.037C225.933 162.037 219.777 167.759 214.837 147.801" stroke="#535461" stroke-width="2" stroke-miterlimit="10"/>
<path opacity="0.5" d="M199.378 173.678C199.378 173.678 211.931 171.743 213.089 162.459" stroke="#535461" stroke-width="2" stroke-miterlimit="10"/>
</g>
<path d="M241.758 4.26993C238.65 4.81351 234.912 6.5122 233.376 11.7585C230.362 22.0436 239.529 29.829 237.417 40.5754C236.784 43.794 235.224 46.4118 233.579 48.3215C230.356 52.0622 226.687 53.6858 223.204 56.2249C219.72 58.764 216.103 62.7478 214.47 68.8667C212.898 74.7531 213.579 81.2582 215.212 86.1183C216.845 90.9783 219.317 94.601 221.525 98.5992C224.215 103.521 226.463 108.76 228.235 114.231C229.026 116.638 229.75 119.177 230.007 122.059C230.292 125.346 229.932 128.882 229.574 132.344L226.387 163.099C225.963 167.194 225.536 171.36 225.782 175.305C226.057 179.857 227.196 183.827 228.32 187.704C230.744 196.065 233.337 204.751 237.902 209.382C242.467 214.014 249.641 213.002 253.5 204.433C257.174 196.276 256.499 185.029 259.631 176.267C264.569 162.459 276.186 161.343 281.776 148.237C287.141 135.663 284.138 119.577 286.292 104.965C287.837 94.4937 292.015 85.1348 294.169 74.8318C297.258 59.987 295.783 44.2697 291.694 32.4289C287.604 20.5881 281.158 12.2091 274.227 5.71829C271.288 2.96819 268.168 0.482741 264.69 0.0249881C260.982 -0.461374 258.026 3.2221 254.454 4.14834C250.304 5.24623 245.972 3.53323 241.758 4.26993Z" fill="#FF0043"/>
<path d="M261.406 0.586548C261.406 0.586548 264.33 134.608 243.424 212.108" stroke="#535461" stroke-width="2" stroke-miterlimit="10"/>
<path d="M233.255 12.4022C233.255 12.4022 262.827 35.7977 260.295 76.3875" stroke="#535461" stroke-width="2" stroke-miterlimit="10"/>
<path d="M213.843 71.9637C213.843 71.9637 260.519 82.8783 258.677 105.827" stroke="#535461" stroke-width="2" stroke-miterlimit="10"/>
<path d="M291.736 32.1643C291.736 32.1643 273.996 44.6309 260.022 82.3919" stroke="#535461" stroke-width="2" stroke-miterlimit="10"/>
<path d="M281.503 148.458C281.503 148.458 269.337 156.019 257.108 125.928" stroke="#535461" stroke-width="2" stroke-miterlimit="10"/>
<path d="M227.693 161.887C227.693 161.887 253.482 160.793 254.957 147.289" stroke="#535461" stroke-width="2" stroke-miterlimit="10"/>
<path opacity="0.1" d="M147.895 223.795C219.446 223.795 277.45 217.217 277.45 209.104C277.45 200.99 219.446 194.413 147.895 194.413C76.3433 194.413 18.3395 200.99 18.3395 209.104C18.3395 217.217 76.3433 223.795 147.895 223.795Z" fill="#FF6366"/>
<path d="M20.3722 191.616C20.3722 191.616 22.9108 195.55 19.1999 201.451C15.489 207.351 12.4293 212.365 13.6805 216.052C13.6805 216.052 19.2786 205.062 23.8347 204.909C28.3909 204.755 25.3858 198.225 20.3722 191.616Z" fill="#FF6366"/>
<path opacity="0.1" d="M20.3722 191.616C20.5934 191.995 20.7678 192.409 20.8902 192.846C25.3373 199.012 27.7032 204.766 23.4318 204.912C19.4513 205.048 14.6771 213.449 13.532 215.573C13.5698 215.737 13.6153 215.898 13.6683 216.056C13.6683 216.056 19.2665 205.066 23.8226 204.912C28.3787 204.758 25.3857 198.225 20.3722 191.616Z" fill="black"/>
<path d="M25.0919 196.612C25.0919 197.992 24.9616 199.115 24.789 199.115C24.6163 199.115 24.486 197.996 24.486 196.612C24.486 195.228 24.6496 195.897 24.8102 195.897C24.9707 195.897 25.0919 195.232 25.0919 196.612Z" fill="#FFD037"/>
<path d="M26.7065 198.257C25.6796 198.919 24.7859 199.33 24.7102 199.148C24.6344 198.965 25.4009 198.307 26.4278 197.649C27.4547 196.991 27.0488 197.47 27.1276 197.649C27.2063 197.828 27.7365 197.592 26.7065 198.257Z" fill="#FFD037"/>
<path d="M6.96136 191.616C6.96136 191.616 4.42279 195.55 8.13371 201.451C11.8446 207.351 14.8921 212.365 13.6804 216.052C13.6804 216.052 8.08221 205.062 3.52611 204.909C-1.02999 204.755 1.95086 198.225 6.96136 191.616Z" fill="#FF6366"/>
<path opacity="0.1" d="M6.9614 191.616C6.74019 191.995 6.56577 192.409 6.44339 192.846C1.99634 199.012 -0.369558 204.766 3.90179 204.912C7.88232 205.048 12.6565 213.449 13.8016 215.573C13.7638 215.737 13.7183 215.898 13.6653 216.056C13.6653 216.056 8.06711 205.066 3.511 204.912C-1.0451 204.758 1.9509 198.225 6.9614 191.616Z" fill="black"/>
<path d="M2.24475 196.612C2.24475 197.992 2.37501 199.115 2.54768 199.115C2.72036 199.115 2.85062 197.996 2.85062 196.612C2.85062 195.228 2.68703 195.897 2.52648 195.897C2.36592 195.897 2.24475 195.232 2.24475 196.612Z" fill="#FFD037"/>
<path d="M0.624029 198.257C1.65097 198.919 2.54462 199.33 2.62035 199.148C2.69609 198.965 1.92967 198.307 0.902726 197.649C-0.124215 196.991 0.281715 197.47 0.202953 197.649C0.12419 197.828 -0.402912 197.592 0.624029 198.257Z" fill="#FFD037"/>
<path d="M3.05054 215.541C3.05054 215.541 10.1482 215.283 12.2869 213.484C14.4256 211.686 23.1925 209.551 23.7348 212.412C24.277 215.273 34.401 226.756 26.3885 226.831C18.3759 226.906 7.77022 225.357 5.63455 223.823C3.49888 222.289 3.05054 215.541 3.05054 215.541Z" fill="#A8A8A8"/>
<path opacity="0.2" d="M26.5338 225.844C18.5213 225.919 7.91559 224.37 5.77992 222.836C4.15317 221.667 3.5049 217.472 3.28981 215.537H3.05353C3.05353 215.537 3.50187 222.296 5.63754 223.83C7.77321 225.365 18.3789 226.917 26.4036 226.842C28.718 226.82 29.5147 225.847 29.4723 224.41C29.13 225.279 28.2545 225.822 26.5338 225.844Z" fill="black"/>
<path d="M95.4328 161.268C95.4328 161.268 130.952 134.479 155.507 134.479C155.507 134.479 185.07 129.043 217.227 138.231C249.383 147.418 261.261 159.33 270.176 155.833L232.722 157.127L95.4328 161.268Z" fill="#8CD0F3"/>
<path opacity="0.1" d="M95.4328 161.268C95.4328 161.268 130.952 134.479 155.507 134.479C155.507 134.479 185.07 129.043 217.227 138.231C249.383 147.418 261.261 159.33 270.176 155.833L232.722 157.127L95.4328 161.268Z" fill="#8CD0F3"/>
<path d="M262.848 202.269H46.2275L52.1831 174.1L89.0197 162.538L262.848 167.931V202.269Z" fill="#181818"/>
<path d="M274.251 184.667V193.658C274.251 193.658 267.819 199.165 267.235 203.478C267.235 203.478 258.026 206.239 255.396 206.239C255.157 206.239 254.896 206.239 254.624 206.271C255.035 204.97 255.356 203.632 255.584 202.27C256.229 198.447 256.148 194.503 255.346 190.722C254.545 186.941 253.043 183.416 250.948 180.403C248.854 177.39 246.22 174.962 243.235 173.295C240.25 171.629 236.99 170.764 233.688 170.764C230.386 170.764 227.126 171.629 224.141 173.295C221.156 174.962 218.522 177.39 216.428 180.403C214.334 183.416 212.832 186.941 212.03 190.722C211.228 194.503 211.147 198.447 211.792 202.27C212.102 204.112 212.578 205.911 213.213 207.634H200.726C200.726 207.634 200.611 207.68 200.423 207.777C199.754 208.134 198.175 209.079 197.948 210.563H94.4634L92.3429 210.541C92.7936 209.648 93.1982 208.724 93.5546 207.773C94.2195 206.013 94.7134 204.169 95.0269 202.277C95.6428 198.664 95.6106 194.939 94.9324 191.341C94.2542 187.744 92.9449 184.354 91.0891 181.391C89.2332 178.427 86.8719 175.956 84.1575 174.136C81.443 172.316 78.4356 171.187 75.329 170.823C72.2225 170.459 69.0858 170.868 66.1212 172.022C63.1566 173.177 60.4298 175.052 58.1167 177.527C55.8035 180.002 53.9554 183.021 52.6913 186.391C51.4272 189.761 50.7753 193.406 50.7775 197.091C50.7775 198.829 50.9215 200.562 51.2077 202.266C51.6959 205.151 52.5909 207.92 53.8553 210.455C52.377 210.03 49.1508 208.821 49.1508 208.821C49.1508 208.821 35.4128 207.097 31.9048 203.457L32.435 203.024L34.6827 201.211L33.6588 196.562C33.5352 196.366 33.4334 196.152 33.3559 195.925C33.0833 195.149 32.8439 193.708 33.8073 191.899C35.2674 189.138 34.5373 179.303 34.5373 179.303C34.5373 179.303 54.4158 163.085 93.5879 159.459C93.5879 159.459 94.524 160.317 96.4567 160.496C97.7654 160.621 99.5315 160.432 101.776 159.459C101.776 159.459 104.99 161.183 118.74 151.867C118.74 151.867 142.13 132.884 172.826 134.615C172.826 134.615 204.398 132.369 231.292 144.628C242.882 149.907 251.7 152.721 257.986 154.209C263.79 155.586 267.435 155.84 269.104 155.861H269.14C269.686 155.861 270.01 155.861 270.125 155.861H270.173C270.173 155.861 270.173 159.97 270.358 164.823V164.848C270.425 166.536 270.516 168.314 270.643 170.041V170.148C270.994 174.958 271.6 179.328 272.651 180.194L274.251 184.667Z" fill="#272727"/>
<path d="M37.6969 178.91C37.6969 178.91 46.5032 170.799 57.4663 172.526C57.4663 172.526 47.4907 181.846 42.9952 181.241L42.2288 180.465L37.6848 180.766C37.6848 180.766 37.0062 179.514 37.6969 178.91Z" fill="#8CD0F3"/>
<path opacity="0.2" d="M46.2457 192.943V197.731C46.2457 197.731 45.9427 202.305 42.4438 202.477L32.4471 203.06L34.6918 201.247L33.6679 196.598C33.5438 196.403 33.4419 196.19 33.365 195.965C34.2738 194.978 36.4155 193.311 40.7717 192.953L46.2457 192.943Z" fill="white"/>
<path opacity="0.2" d="M92.7639 172.873L100.437 172.516C100.437 172.516 97.3322 175.405 95.1389 175.666C92.9457 175.927 92.7639 172.873 92.7639 172.873Z" fill="black"/>
<path opacity="0.2" d="M108.916 200.353C108.916 200.353 178.309 188.962 195.082 192.585C195.082 192.585 200.014 192.975 201.88 195.303C203.746 197.631 201.88 196.122 201.88 196.122L108.916 200.353Z" fill="white"/>
<path opacity="0.5" d="M147.761 168.385C147.761 168.385 148.64 166.443 150.064 166.4L159.309 165.839C159.309 165.839 159.164 167.348 157.519 167.909L147.761 168.385Z" fill="#18218A"/>
<path opacity="0.5" d="M201.147 165.106C201.147 165.106 202.026 163.164 203.449 163.121L212.695 162.545C212.695 162.545 212.549 164.054 210.905 164.616L201.147 165.106Z" fill="#101010"/>
<path d="M169.691 138.499L162.596 160.464L137.016 160.496H130.431H124.702H119.749H114.139C114.139 160.496 117.556 157.535 123.06 153.762C124.878 152.51 126.941 151.173 129.179 149.828C131.239 148.584 133.457 147.325 135.786 146.13C137.604 145.186 139.519 144.278 141.475 143.43C150.348 139.6 160.321 137.029 169.691 138.499Z" fill="#8CD0F3"/>
<path d="M209.884 154.538C209.884 154.538 199.196 156.408 188.997 157.792C185.098 158.322 181.272 158.779 178.139 159.033L177.703 159.069C176.491 159.162 175.368 159.223 174.413 159.244C172.899 159.277 171.766 159.198 171.199 158.983L174.147 137.973C174.147 137.973 177.782 138.02 183.159 138.331L184.334 138.406C185.452 138.481 186.631 138.567 187.861 138.667C189.618 138.81 191.468 138.982 193.377 139.189C202.592 140.187 213.031 141.978 219.641 145.204C233.706 152.078 209.884 154.538 209.884 154.538Z" fill="#8CD0F3"/>
<path d="M259.141 165.106V170.713C259.141 170.713 251.467 170.842 253.112 169.032C254.177 167.831 255.143 166.514 255.999 165.099L259.141 165.106Z" fill="#8CD0F3"/>
<path d="M270.637 170.141L264.405 170.717V163.976C264.405 163.976 267.292 159.187 270.179 164.494L270.346 164.805L270.637 170.141Z" fill="#8CD0F3"/>
<path d="M73.1248 218.144C82.9741 218.144 90.9585 208.718 90.9585 197.091C90.9585 185.464 82.9741 176.038 73.1248 176.038C63.2756 176.038 55.2912 185.464 55.2912 197.091C55.2912 208.718 63.2756 218.144 73.1248 218.144Z" fill="black"/>
<path d="M87.4293 197.073C87.4358 201.418 86.0286 205.599 83.4984 208.753C80.9682 211.908 77.5084 213.794 73.8336 214.024C70.1588 214.253 66.5498 212.807 63.7522 209.985C60.9545 207.162 59.182 203.179 58.8007 198.859C58.4195 194.538 59.4586 190.209 61.7035 186.767C63.9483 183.325 67.2274 181.032 70.8633 180.362C74.4992 179.692 78.2142 180.696 81.2408 183.167C84.2674 185.639 86.3743 189.388 87.1264 193.64C87.3259 194.769 87.4274 195.92 87.4293 197.073Z" fill="#272727"/>
<path opacity="0.5" d="M73.1036 211.621C79.8946 211.621 85.3997 205.106 85.3997 197.07C85.3997 189.033 79.8946 182.518 73.1036 182.518C66.3127 182.518 60.8076 189.033 60.8076 197.07C60.8076 205.106 66.3127 211.621 73.1036 211.621Z" fill="black"/>
<path d="M77.2175 180.827V181.442L73.1249 197.438L69.8411 180.562C72.2775 179.892 74.82 179.983 77.2175 180.827V180.827Z" fill="#272727"/>
<path d="M77.1872 213.327C74.8431 214.147 72.3607 214.248 69.9744 213.62L73.1218 197.438L77.1872 213.327Z" fill="#272727"/>
<path d="M87.4293 197.073C87.4314 198.838 87.2004 200.592 86.7447 202.273H86.6871L73.137 197.442L87.1506 193.644C87.3412 194.773 87.4346 195.922 87.4293 197.073Z" fill="#272727"/>
<path d="M73.1248 197.438L59.5747 202.269H59.4687C58.714 199.476 58.5794 196.501 59.0779 193.629L73.1248 197.438Z" fill="#272727"/>
<path d="M73.1037 198.926C73.972 198.926 74.6759 198.095 74.6759 197.07C74.6759 196.045 73.972 195.214 73.1037 195.214C72.2353 195.214 71.5314 196.045 71.5314 197.07C71.5314 198.095 72.2353 198.926 73.1037 198.926Z" fill="#181818"/>
<path d="M233.579 218.144C243.428 218.144 251.413 208.718 251.413 197.091C251.413 185.464 243.428 176.038 233.579 176.038C223.73 176.038 215.745 185.464 215.745 197.091C215.745 208.718 223.73 218.144 233.579 218.144Z" fill="black"/>
<path d="M247.887 197.073C247.893 201.418 246.486 205.599 243.956 208.753C241.425 211.908 237.966 213.794 234.291 214.024C230.616 214.253 227.007 212.807 224.209 209.985C221.412 207.162 219.639 203.179 219.258 198.859C218.877 194.538 219.916 190.209 222.161 186.767C224.406 183.325 227.685 181.032 231.321 180.362C234.956 179.692 238.671 180.696 241.698 183.167C244.725 185.639 246.832 189.388 247.584 193.64C247.783 194.769 247.885 195.92 247.887 197.073Z" fill="#272727"/>
<path opacity="0.5" d="M233.561 211.621C240.352 211.621 245.857 205.106 245.857 197.07C245.857 189.033 240.352 182.518 233.561 182.518C226.77 182.518 221.265 189.033 221.265 197.07C221.265 205.106 226.77 211.621 233.561 211.621Z" fill="black"/>
<path d="M237.672 180.827V181.442L233.579 197.438L230.295 180.562C232.732 179.892 235.274 179.983 237.672 180.827V180.827Z" fill="#272727"/>
<path d="M237.644 213.327C235.3 214.147 232.818 214.248 230.432 213.62L233.579 197.438L237.644 213.327Z" fill="#272727"/>
<path d="M247.887 197.073C247.889 198.838 247.658 200.592 247.202 202.273H247.132L233.579 197.438L247.593 193.64C247.789 194.77 247.887 195.92 247.887 197.073Z" fill="#272727"/>
<path d="M233.579 197.438L220.029 202.269H219.923C219.168 199.476 219.034 196.501 219.532 193.629L233.579 197.438Z" fill="#272727"/>
<path d="M233.561 198.926C234.429 198.926 235.133 198.095 235.133 197.07C235.133 196.045 234.429 195.214 233.561 195.214C232.693 195.214 231.989 196.045 231.989 197.07C231.989 198.095 232.693 198.926 233.561 198.926Z" fill="black"/>
<path opacity="0.2" d="M129.182 149.85L124.702 160.51H119.749L123.06 153.783C124.887 152.532 126.944 151.198 129.182 149.85Z" fill="white"/>
<path opacity="0.2" d="M141.475 143.452L137.013 160.5H130.428L135.789 146.145C137.619 145.208 139.522 144.307 141.475 143.452Z" fill="white"/>
<path opacity="0.2" d="M187.867 138.685L178.145 159.037L177.709 159.073C176.497 159.166 175.374 159.226 174.419 159.248L183.165 138.352L184.34 138.427C185.443 138.499 186.631 138.585 187.867 138.685Z" fill="white"/>
<path opacity="0.2" d="M114.309 160.439L108.759 205.567L155.11 204.369L162.72 160.635L114.309 160.439Z" stroke="white" stroke-miterlimit="10"/>
<path opacity="0.5" d="M200.426 207.762C199.757 208.12 198.178 209.064 197.951 210.548H94.4634L92.3429 210.527C92.7936 209.634 93.1982 208.71 93.5546 207.759L200.426 207.762Z" fill="black"/>
<path d="M110.955 240.374C111.661 239.598 112.324 238.682 112.53 237.57C112.736 236.458 112.333 235.12 111.431 234.709C110.422 234.251 109.34 235.067 108.522 235.914C107.705 236.762 106.765 237.702 105.696 237.524C106.247 236.934 106.659 236.186 106.892 235.352C107.125 234.519 107.171 233.628 107.026 232.767C106.979 232.412 106.851 232.078 106.656 231.802C106.096 231.086 105.078 231.398 104.409 231.955C102.288 233.744 101.682 237.152 101.667 240.234C101.452 239.122 101.634 237.963 101.628 236.823C101.622 235.682 101.358 234.419 100.543 233.804C100.036 233.482 99.4651 233.324 98.8892 233.347C97.929 233.304 96.8596 233.418 96.2053 234.248C95.3904 235.278 95.5994 237.005 96.3113 238.139C97.0232 239.272 98.0986 239.984 99.0892 240.767C99.8844 241.327 100.563 242.091 101.073 243.002C101.134 243.13 101.184 243.264 101.222 243.403H107.238C108.587 242.596 109.837 241.577 110.955 240.374V240.374Z" fill="#FF6366"/>
<path d="M236.699 246.389C237.254 245.855 237.659 245.134 237.859 244.322C238.011 243.499 237.714 242.516 237.048 242.216C236.302 241.879 235.506 242.487 234.903 243.106C234.3 243.725 233.606 244.426 232.816 244.293C233.222 243.859 233.526 243.307 233.698 242.692C233.87 242.077 233.904 241.42 233.797 240.785C233.763 240.522 233.669 240.275 233.524 240.07C233.109 239.548 232.361 239.773 231.864 240.184C230.289 241.493 229.85 244.018 229.841 246.292C229.683 245.473 229.817 244.619 229.811 243.789C229.805 242.959 229.611 242.001 229.011 241.565C228.639 241.329 228.221 241.212 227.799 241.225C227.09 241.193 226.303 241.279 225.818 241.89C225.212 242.648 225.373 243.925 225.897 244.751C226.421 245.577 227.214 246.11 227.948 246.689C228.535 247.102 229.036 247.665 229.414 248.338C229.458 248.431 229.495 248.53 229.523 248.631H233.961C234.955 248.033 235.876 247.279 236.699 246.389V246.389Z" fill="#FF6366"/>
<path d="M256.39 257.765C256.945 257.231 257.35 256.51 257.55 255.698C257.702 254.875 257.405 253.892 256.738 253.591C255.993 253.255 255.196 253.863 254.593 254.482C253.991 255.101 253.297 255.802 252.506 255.669C252.913 255.234 253.217 254.683 253.389 254.068C253.561 253.453 253.595 252.796 253.488 252.161C253.454 251.898 253.359 251.65 253.215 251.446C252.8 250.924 252.052 251.149 251.555 251.56C249.98 252.869 249.541 255.394 249.531 257.668C249.374 256.849 249.507 255.995 249.501 255.165C249.495 254.335 249.301 253.377 248.701 252.941C248.329 252.705 247.912 252.588 247.49 252.601C246.781 252.569 245.993 252.654 245.508 253.266C244.903 254.024 245.063 255.301 245.587 256.127C246.111 256.953 246.905 257.486 247.638 258.065C248.226 258.478 248.727 259.041 249.104 259.714C249.149 259.807 249.185 259.905 249.213 260.007H253.651C254.646 259.409 255.567 258.655 256.39 257.765Z" fill="#FF6366"/>
<path d="M199.46 233.858C199.46 233.858 198.403 234.538 197.921 230.69C197.618 228.186 196.736 223.026 196.158 219.675L196.085 219.249C196.251 219.188 196.414 219.116 196.573 219.035C196.573 219.035 193.204 203.657 193.974 200.253C194.743 196.848 193.974 190.747 193.974 190.747L191.953 182.715C191.953 182.715 186.949 180.677 185.025 180.111C183.101 179.546 177.712 175.584 177.712 175.584C177.805 175.711 177.892 175.843 177.973 175.981L177.758 175.827C177.365 175.394 177.009 174.914 176.697 174.397C177.772 173.047 178.468 171.338 178.691 169.504C179.41 167.895 179.749 166.087 179.673 164.269C179.598 162.452 179.11 160.692 178.261 159.173C178.588 158.689 178.837 158.139 178.997 157.549C179.061 157.28 179.089 157 179.078 156.72C179.113 156.271 179.031 155.82 178.843 155.428C178.654 155.036 178.369 154.722 178.024 154.527C177.794 154.415 177.548 154.358 177.299 154.361C177.05 154.364 176.804 154.427 176.576 154.545C176.149 154.774 175.813 155.203 175.346 155.318C174.568 155.507 173.901 154.771 173.289 154.223C172.339 153.387 171.204 152.89 170.021 152.793C169.507 152.725 168.987 152.806 168.506 153.029C168.049 153.334 167.628 153.708 167.252 154.141C165.865 155.461 163.92 155.829 162.178 156.548C161.845 156.684 161.475 156.906 161.415 157.263C161.402 157.334 161.402 157.407 161.415 157.478C161.4 157.569 161.407 157.662 161.433 157.75C158.185 158.393 155.007 161.304 155.007 161.304L154.474 161.887C154.3 161.776 154.102 161.727 153.904 161.747C153.707 161.766 153.519 161.854 153.363 161.998L152.29 162.992C152.096 163.171 151.965 163.428 151.92 163.714C151.875 164 151.921 164.295 152.048 164.544L144.205 173.127L144.035 173.313V173.281C144.035 173.281 137.977 178.713 137.977 182.558C137.977 185.336 139.794 187.049 140.785 187.79C139.896 188.776 139.225 190.004 138.828 191.366V191.366V191.402V191.452V191.491V191.534V191.57V191.609V191.645V191.68V191.713V191.745V191.773V191.806V191.831V191.87V191.906V191.927V191.949V192.106V192.149V192.235V192.296V192.356L138.804 192.514V192.578L138.788 192.685V192.728V192.832V192.907L138.767 193.05L138.74 193.229V193.265L138.719 193.415V193.486L138.695 193.651V193.694L138.667 193.88V193.962L138.598 194.431L138.561 194.684V194.727L138.522 194.988V195.024L138.483 195.289V195.31L138.44 195.589V195.65L138.398 195.925V195.986L138.358 196.258V196.29L138.313 196.598V196.655L138.21 197.342L138.158 197.699V197.753L138.107 198.11V198.135L137.995 198.851V198.912L137.94 199.269V199.319L137.822 200.074V200.106L137.762 200.489V200.521L137.64 201.3V201.35L137.58 201.737V201.765L137.453 202.563V202.606L137.389 202.999V203.028L137.259 203.836V203.868L137.195 204.262V204.294L136.641 205.102V205.138L136.574 205.527V205.549L136.438 206.343V206.364L136.371 206.751V206.772L136.238 207.53V207.562L136.174 207.92V207.952L136.044 208.667V208.692L135.98 209.05V209.086L135.853 209.762V209.78L135.792 210.098V210.13C135.75 210.345 135.709 210.552 135.668 210.752L135.608 211.046V211.071C135.567 211.266 135.528 211.453 135.49 211.632L135.432 211.89V211.918L135.377 212.165C135.135 213.238 134.923 213.953 134.772 214.121C134.618 214.311 134.498 214.535 134.417 214.779V214.779L134.393 214.851L134.369 214.929L134.347 215.008L134.248 215.115L134.226 215.198L134.208 215.273L134.19 215.358V215.437L134.175 215.523V215.602C134.175 215.659 134.167 215.716 134.151 215.773V215.845V215.941V216.016V216.113V216.188V216.285V216.36V216.456V216.528C134.151 216.646 134.151 216.76 134.151 216.885C134.151 216.907 134.151 216.928 134.151 216.953C134.151 216.978 134.151 217.014 134.151 217.046C134.151 217.079 134.151 217.093 134.151 217.114C134.151 217.136 134.151 217.175 134.151 217.204C134.151 217.232 134.151 217.247 134.151 217.272C134.151 217.297 134.151 217.329 134.151 217.358V217.422C134.151 217.451 134.151 217.479 134.151 217.508V217.565C134.151 217.617 134.151 217.669 134.151 217.719V218.284V218.362V218.588L135.059 218.913C135.059 218.913 135.517 219.21 136.223 219.596C136.123 223.205 135.841 228.09 135.075 231.079C133.366 231.183 129.146 231.394 128.383 231.033C127.419 230.579 121.261 229.449 123.187 234.652C123.993 236.833 125.747 238.479 127.51 239.659C127.292 239.743 127.069 239.811 126.844 239.863C125.275 240.22 124.838 240.839 124.899 241.475C124.787 242.548 126.332 243.746 126.459 243.821C126.653 243.936 133.193 245.18 134.735 244.612C136.277 244.043 142.53 242.688 142.53 242.688C142.53 242.688 142.53 242.605 142.53 242.462C142.53 242.462 142.445 240.238 142.209 238.128C142.917 238.006 143.69 237.896 144.441 237.828C144.538 238.363 144.736 238.864 145.022 239.295C145.308 239.726 145.673 240.074 146.089 240.313C150.227 242.816 151.575 239.408 151.575 239.408C151.575 239.408 157.17 240.678 160.297 239.766C160.624 240.124 160.903 240.377 161.099 240.549C162.114 241.411 164.847 242.001 167.903 242.044C168.717 242.139 169.537 242.111 170.345 241.962C171.694 241.857 173.032 241.609 174.344 241.221C178.024 240.095 178.833 236.054 179.009 234.219C179.154 234.169 179.257 233.99 179.312 233.654C179.385 233.471 179.428 233.273 179.439 233.071C179.519 232.241 179.651 231.419 179.833 230.611L184.377 230.911C186.406 235.26 188.2 238.718 188.2 238.718L191.278 238.264C189.908 236.97 188.709 235.445 187.718 233.737C186.179 231.022 186.179 218.001 186.179 218.001L186.352 210.073V210.155V209.772C186.637 212.122 188.893 218.938 189.148 219.038C189.333 219.11 189.515 219.174 189.693 219.235L189.857 219.743C191.141 223.762 194.401 234.048 194.631 235.671C194.934 237.71 206.948 238.5 209.641 237.481C212.334 236.462 199.46 233.858 199.46 233.858ZM156.543 188.827L152.139 196.637C150.557 193.418 148.909 190.457 147.419 188.498C151.327 188.651 155.831 188.816 156.543 188.827ZM155.874 168.8C156.045 168.895 156.235 168.932 156.422 168.908C156.61 168.883 156.788 168.798 156.937 168.66L157.313 168.303C157.505 168.127 157.636 167.875 157.683 167.594C157.731 167.313 157.691 167.021 157.57 166.772L157.794 166.511C159.345 166.201 160.876 165.763 162.375 165.199C162.432 166.813 162.816 168.388 163.496 169.791C163.63 170.688 163.879 171.557 164.235 172.365C163.544 172.297 162.793 172.251 162.075 172.258C161.448 172.243 160.82 172.29 160.2 172.398C157.891 172.852 157.601 177.83 157.601 177.83C157.601 177.83 152.963 179.754 150.176 179.822C149.823 179.824 149.471 179.762 149.134 179.639L148.852 179.618L149.231 178.395C149.231 178.395 149.067 178.456 148.797 178.52C148.884 178.365 148.975 178.208 149.07 178.048C150.833 175.062 153.887 171.214 155.874 168.807V168.8ZM146.344 229.22C145.989 229.936 145.67 230.676 145.389 231.437C144.296 231.687 142.805 231.827 142.015 231.029C141.658 230.684 141.21 230.498 140.748 230.504L140.767 230.461C141.312 229.227 141.775 226.463 142.139 223.602C143.902 223.602 145.577 221.86 145.577 221.86L147.798 222.758L147.879 222.94L147.934 223.058L148.022 223.251L148.076 223.373L148.164 223.562L148.222 223.684L148.31 223.87L148.367 223.991L148.452 224.174L148.51 224.295L148.597 224.478L148.655 224.596L148.743 224.775L148.797 224.889L148.885 225.068L148.94 225.179L149.025 225.354L149.079 225.465L149.167 225.64L149.218 225.74L149.306 225.912L149.358 226.012L149.446 226.184L149.491 226.273L149.582 226.448L149.615 226.513C149.773 226.817 149.918 227.106 150.067 227.378L150.088 227.417L150.173 227.575L150.209 227.643L150.285 227.786L150.327 227.861L150.397 227.99L150.439 228.072L150.503 228.19L150.548 228.272L150.609 228.383L150.651 228.462L150.706 228.562L150.748 228.64L150.8 228.733L150.842 228.812L150.891 228.898L150.933 228.973C149.417 229.268 147.876 229.351 146.344 229.22V229.22Z" fill="url(#paint0_linear_949_3)"/>
<path d="M208.575 236.837C205.949 237.835 194.222 237.059 193.94 235.049C193.716 233.45 190.538 223.39 189.284 219.457L188.781 217.883L194.879 216.331C194.879 216.331 195.104 217.593 195.413 219.392C195.976 222.675 196.827 227.743 197.13 230.175C197.6 233.94 198.645 233.275 198.645 233.275C198.645 233.275 211.192 235.839 208.575 236.837Z" fill="#FFBDC6"/>
<path d="M175.446 171.486C175.446 171.486 174.977 174.808 179.012 177.923C183.047 181.038 179.575 192.21 179.575 192.21L176.591 192.406C174.696 192.532 172.834 191.785 171.396 190.323C169.958 188.861 169.055 186.798 168.879 184.567V184.567C168.879 184.567 170.566 181.349 167.47 173.048L175.446 171.486Z" fill="#FFBDC6"/>
<path d="M158.01 167.398C158.01 167.398 152.202 174.082 149.503 178.688C149.183 179.222 148.891 179.779 148.628 180.355C146.659 184.785 142.078 177.583 143.663 175.094L144.756 173.889L155.286 162.302C155.286 162.302 162.511 155.657 166.168 160.421C169.824 165.184 158.01 167.398 158.01 167.398Z" fill="#FFBDC6"/>
<path d="M170.908 175.648C175.571 175.648 179.351 171.186 179.351 165.681C179.351 160.177 175.571 155.715 170.908 155.715C166.246 155.715 162.466 160.177 162.466 165.681C162.466 171.186 166.246 175.648 170.908 175.648Z" fill="#A66477"/>
<path d="M136.529 230.521C136.529 230.521 130.243 230.965 129.304 230.521C128.365 230.078 122.363 228.973 124.251 234.069C126.138 239.165 133.257 241.268 133.257 241.268L138.407 239.716L136.529 230.521Z" fill="#7679B4"/>
<path opacity="0.05" d="M136.529 230.521C136.529 230.521 130.243 230.965 129.304 230.521C128.365 230.078 122.363 228.973 124.251 234.069C126.138 239.165 133.257 241.268 133.257 241.268L138.407 239.716L136.529 230.521Z" fill="black"/>
<path d="M158.949 208.707L171.566 214.758L178.742 232.753C178.742 232.753 178.836 239.065 174.147 240.506C169.457 241.947 162.89 241.282 161.199 239.841C159.509 238.4 152.569 229.874 152.569 229.874L158.949 208.707Z" fill="#7679B4"/>
<path opacity="0.05" d="M158.091 208.707L169.012 213.538L175.225 227.939C175.225 227.939 175.307 232.993 171.248 234.144C167.188 235.296 161.502 234.763 160.039 233.611C158.576 232.46 152.569 225.633 152.569 225.633L158.091 208.707Z" fill="black"/>
<path d="M147.222 230.521C147.222 230.521 143.938 231.852 142.627 230.521C141.315 229.191 138.967 230.854 138.967 230.854L140.003 238.053C140.003 238.053 144.693 236.833 147.228 237.166L147.222 230.521Z" fill="#FFBDC6"/>
<path opacity="0.05" d="M147.222 230.521C147.222 230.521 143.938 231.852 142.627 230.521C141.315 229.191 138.967 230.854 138.967 230.854L140.003 238.053C140.003 238.053 144.693 236.833 147.228 237.166L147.222 230.521Z" fill="black"/>
<path d="M149.091 222.772L146.095 221.552C146.095 221.552 142.811 224.985 140.642 222.107C138.473 219.228 142.611 207.265 142.611 207.265L147.019 198.847L150.209 210.699L153.117 216.456L149.091 222.772Z" fill="#565388"/>
<path opacity="0.05" d="M149.091 222.772L146.095 221.552C146.095 221.552 142.811 224.985 140.642 222.107C138.473 219.228 142.611 207.265 142.611 207.265L147.019 198.847L150.209 210.699L153.117 216.456L149.091 222.772Z" fill="black"/>
<path d="M177.709 222.107L184.465 223.212L185.779 230.521L177.431 229.967L177.709 222.107Z" fill="#565388"/>
<path opacity="0.05" d="M177.709 222.107L184.465 223.212L185.779 230.521L177.431 229.967L177.709 222.107Z" fill="black"/>
<path opacity="0.1" d="M168.237 182.018C168.237 182.018 171.051 194.752 180.051 185.562L182.489 222.107C182.489 222.107 179.487 227.753 179.018 232.835C178.548 237.917 170.387 217.1 165.51 217C160.633 216.9 155.801 208.86 155.801 208.86L161.29 195.514L168.237 182.018Z" fill="black"/>
<path d="M168.33 181.685C168.33 181.685 171.145 194.42 180.145 185.229L182.583 221.774C182.583 221.774 179.581 227.421 179.112 232.503C178.642 237.584 170.481 216.767 165.604 216.667C160.727 216.567 155.895 208.528 155.895 208.528L161.384 195.181L168.33 181.685Z" fill="#F2F1F2"/>
<path opacity="0.1" d="M166.828 173.488C166.828 173.488 162.89 172.712 160.636 173.156C158.382 173.599 158.103 178.47 158.103 178.47C158.103 178.47 151.724 181.127 149.567 180.258C149.567 180.258 138.964 179.371 138.964 183.137C138.964 186.903 142.345 188.651 142.345 188.651C142.345 188.651 157.064 189.238 157.167 189.206C160.545 188.097 157.073 189.206 157.073 189.206L150.975 200.059L156.604 209.25L162.608 204.047C162.608 204.047 163.359 199.172 165.334 196.737C166.74 194.995 168.579 187.156 169.515 182.819C169.712 181.905 169.753 180.954 169.636 180.022C169.519 179.089 169.246 178.193 168.833 177.386L166.828 173.488Z" fill="black"/>
<path opacity="0.1" d="M149.503 178.688C149.183 179.222 148.891 179.779 148.628 180.355C146.659 184.785 142.078 177.583 143.663 175.094L144.756 173.889C144.356 179.604 148.298 178.996 149.503 178.688Z" fill="black"/>
<path opacity="0.1" d="M157.073 188.773H156.967C156.967 188.773 160.451 187.664 157.073 188.773Z" fill="black"/>
<path d="M166.546 173.488C166.546 173.488 162.608 172.712 160.354 173.156C158.1 173.599 157.822 178.47 157.822 178.47C157.822 178.47 151.442 181.127 149.285 180.258L149.661 179.039C149.661 179.039 143.941 181.141 144.596 174.043C144.596 174.043 138.685 179.357 138.685 183.123C138.685 186.888 142.063 188.651 142.063 188.651C142.063 188.651 156.783 189.238 156.886 189.206C160.263 188.097 156.792 189.206 156.792 189.206L150.694 200.059L156.322 209.25L162.326 204.047C162.326 204.047 163.078 199.172 165.053 196.737C166.458 194.995 168.297 187.156 169.233 182.819C169.43 181.905 169.471 180.954 169.354 180.022C169.237 179.089 168.964 178.193 168.552 177.386L166.546 173.488Z" fill="#565388"/>
<path opacity="0.1" d="M185.874 209.483V210.091C185.833 209.891 185.833 209.683 185.874 209.483V209.483Z" fill="black"/>
<path opacity="0.1" d="M195.413 219.407C193.419 220.132 191.289 220.154 189.284 219.471L188.781 217.898L194.879 216.345C194.879 216.345 195.101 217.619 195.413 219.407Z" fill="black"/>
<path opacity="0.1" d="M177.149 176.256C177.149 176.256 182.402 180.133 184.28 180.687C186.158 181.242 191.035 183.233 191.035 183.233L193.004 191.101C193.004 191.101 193.756 197.08 193.004 200.399C192.253 203.718 185.219 210.033 185.595 209.036L185.407 217.783C185.407 217.783 185.407 230.518 186.921 233.161C188.436 235.804 184.059 230.557 184.059 230.557C184.059 230.557 178.757 221.309 178.103 215.441C177.449 209.572 178.476 186.999 178.476 186.999L177.537 185.447C177.537 185.447 179.494 179.468 177.149 176.256Z" fill="black"/>
<path d="M177.431 176.256C177.431 176.256 182.683 180.133 184.562 180.687C186.44 181.242 191.317 183.233 191.317 183.233L193.286 191.101C193.286 191.101 194.037 197.081 193.286 200.399C192.535 203.718 195.819 218.784 195.819 218.784C195.819 218.784 192.789 220.437 188.594 218.784C188.312 218.674 185.498 210.037 185.867 209.039L185.679 217.787C185.679 217.787 185.679 230.522 187.194 233.164C188.16 234.835 189.33 236.328 190.666 237.595L187.664 238.039C187.664 238.039 179.024 221.331 178.367 215.473C177.709 209.615 178.742 187.01 178.742 187.01L177.803 185.458C177.803 185.458 179.775 179.468 177.431 176.256Z" fill="#565388"/>
<path d="M151.818 229.42C151.818 229.42 145.532 218.691 145.814 213.685C145.814 213.685 145.062 220.551 144.22 220.994C143.378 221.438 134.932 218.334 134.932 218.334C134.932 218.334 134.557 215.115 135.496 214.014C136.435 212.912 139.343 192.417 139.343 192.417C139.343 192.417 140.376 186.881 144.877 186.549C149.379 186.216 159.512 213.238 159.512 213.238C159.512 213.238 161.012 229.42 151.818 229.42Z" fill="#7679B4"/>
<path d="M136.998 214.797C136.998 214.797 137.186 230.3 134.841 232.85C132.497 235.399 141.691 236.726 141.691 236.726C141.691 236.726 140.097 232.96 141.409 229.971C142.721 226.981 143.566 214.797 143.566 214.797H136.998Z" fill="#FFBDC6"/>
<path opacity="0.05" d="M137.465 232.639C137.465 232.639 136.526 229.871 133.993 232.084C133.993 232.084 131.742 238.285 127.801 239.172C123.86 240.059 127.238 242.716 127.425 242.827C127.613 242.938 133.993 244.157 135.493 243.603C136.992 243.049 143.09 241.722 143.09 241.722C143.09 241.722 142.808 234.412 141.878 233.854C140.948 233.297 141.406 237.17 137.465 232.639Z" fill="black"/>
<path d="M137.465 232.85C137.465 232.85 136.526 230.082 133.993 232.295C133.993 232.295 131.742 238.496 127.801 239.383C123.86 240.27 127.238 242.927 127.425 243.038C127.613 243.149 133.993 244.368 135.493 243.814C136.992 243.26 143.093 241.937 143.093 241.937C143.093 241.937 142.811 234.627 141.881 234.069C140.951 233.511 141.406 237.388 137.465 232.85Z" fill="#7679B4"/>
<path d="M155.129 163.26C155.921 164.713 156.774 166.118 157.685 167.469C157.772 167.589 157.838 167.729 157.878 167.88C157.918 168.03 157.931 168.189 157.918 168.346C157.905 168.503 157.865 168.655 157.8 168.793C157.736 168.932 157.648 169.053 157.543 169.15L157.176 169.49C157.072 169.587 156.952 169.658 156.823 169.699C156.695 169.739 156.561 169.749 156.429 169.728C156.297 169.706 156.17 169.653 156.056 169.572C155.942 169.492 155.843 169.385 155.765 169.258C154.944 167.914 153.916 166.766 152.735 165.871C152.601 165.772 152.488 165.636 152.407 165.474C152.326 165.313 152.279 165.131 152.27 164.944C152.261 164.757 152.291 164.57 152.356 164.399C152.421 164.228 152.52 164.078 152.645 163.961L153.69 162.989C153.797 162.888 153.921 162.816 154.054 162.775C154.186 162.734 154.324 162.726 154.46 162.752C154.595 162.778 154.724 162.836 154.839 162.923C154.954 163.011 155.053 163.126 155.129 163.26V163.26Z" fill="#565388"/>
<path opacity="0.1" d="M176.534 175.419C175.322 173.406 175.552 171.811 175.552 171.811L167.57 173.377C168.125 174.838 168.58 176.349 168.933 177.894C170.27 178.355 171.689 178.368 173.031 177.931C174.374 177.494 175.586 176.624 176.534 175.419V175.419Z" fill="black"/>
<path d="M170.957 177.916C175.101 177.916 178.461 173.95 178.461 169.057C178.461 164.165 175.101 160.199 170.957 160.199C166.813 160.199 163.453 164.165 163.453 169.057C163.453 173.95 166.813 177.916 170.957 177.916Z" fill="#FFBDC6"/>
<path opacity="0.1" d="M167.655 164.441C168.364 164.301 168.994 163.811 169.712 163.768C170.621 163.715 171.442 164.401 172.081 165.109C172.72 165.817 173.341 166.626 174.219 166.933C174.781 167.088 175.36 167.134 175.934 167.069C176.253 167.088 176.57 166.993 176.843 166.797C176.98 166.647 177.084 166.459 177.146 166.25C177.391 165.584 177.515 164.865 177.51 164.139C177.505 163.412 177.372 162.695 177.118 162.034C177.047 161.897 177.018 161.735 177.034 161.576C177.061 161.481 177.105 161.395 177.164 161.322C177.77 160.478 178.409 159.634 178.654 158.611C178.9 157.589 178.6 156.33 177.706 155.876C177.483 155.762 177.243 155.704 177 155.704C176.758 155.704 176.517 155.762 176.295 155.876C175.876 156.101 175.552 156.519 175.083 156.63C174.322 156.816 173.671 156.094 173.077 155.557C172.152 154.739 171.047 154.252 169.894 154.155C169.389 154.087 168.878 154.167 168.406 154.388C167.965 154.683 167.558 155.044 167.194 155.461C165.84 156.752 163.944 157.113 162.248 157.817C161.923 157.953 161.563 158.154 161.502 158.533C161.442 158.912 161.805 159.294 162.169 159.459C162.532 159.623 162.95 159.731 163.193 160.063C163.496 160.492 163.399 161.1 163.453 161.64C163.565 162.713 164.362 163.296 165.244 163.607C165.974 163.883 166.931 164.584 167.655 164.441Z" fill="black"/>
<path d="M167.655 164.219C168.364 164.079 168.994 163.589 169.712 163.546C170.621 163.493 171.442 164.179 172.081 164.888C172.72 165.596 173.341 166.404 174.219 166.711C174.781 166.867 175.36 166.913 175.934 166.847C176.253 166.866 176.57 166.772 176.843 166.576C176.98 166.425 177.084 166.237 177.146 166.028C177.391 165.362 177.515 164.643 177.51 163.917C177.505 163.191 177.372 162.474 177.119 161.812C177.047 161.675 177.018 161.514 177.034 161.354C177.061 161.26 177.106 161.173 177.164 161.1C177.77 160.256 178.409 159.412 178.654 158.39C178.9 157.367 178.6 156.108 177.706 155.654C177.483 155.54 177.243 155.482 177 155.482C176.758 155.482 176.517 155.54 176.295 155.654C175.876 155.879 175.552 156.298 175.083 156.408C174.322 156.594 173.671 155.872 173.077 155.336C172.161 154.536 171.072 154.06 169.936 153.962C169.432 153.894 168.921 153.974 168.449 154.195C168.008 154.49 167.6 154.85 167.237 155.268C165.883 156.559 163.986 156.92 162.29 157.624C161.966 157.76 161.605 157.96 161.545 158.34C161.484 158.719 161.848 159.101 162.211 159.266C162.575 159.43 162.993 159.538 163.235 159.87C163.538 160.299 163.441 160.907 163.496 161.447C163.608 162.52 164.404 163.103 165.286 163.414C165.974 163.661 166.931 164.362 167.655 164.219Z" fill="#A66477"/>
<path opacity="0.05" d="M161.599 206.833C161.599 206.833 166.958 207.906 168.297 211.321C169.636 214.736 177.688 223.977 177.688 223.977" fill="black"/>
<g opacity="0.05">
<path opacity="0.05" d="M144.408 220.222C143.563 220.666 135.12 217.565 135.12 217.565C135.016 216.601 135.025 215.625 135.147 214.665C134.663 216.045 134.932 218.341 134.932 218.341C134.932 218.341 143.375 221.442 144.22 220.998C144.499 220.851 144.768 220 145.005 218.924C144.817 219.614 144.617 220.122 144.408 220.222Z" fill="black"/>
<path opacity="0.05" d="M139.519 191.738C139.449 191.963 139.391 192.192 139.343 192.424C139.343 192.424 137.307 206.776 136.092 212.093C137.216 207.777 139.337 193.014 139.519 191.738Z" fill="black"/>
<path opacity="0.05" d="M152.005 228.64C152.005 228.64 145.72 217.912 146.001 212.905C146.001 212.905 145.935 213.527 145.816 214.407C146.101 219.643 151.818 229.42 151.818 229.42C156.189 229.42 158.143 225.765 158.988 221.928C158.055 225.461 156.083 228.64 152.005 228.64Z" fill="black"/>
</g>
<path d="M135.814 218.659C135.814 218.659 141.545 222.386 143.611 220.612C145.677 218.838 144.362 216.07 144.362 216.07L142.766 212.969H137.419L135.638 216.624L135.814 218.659Z" fill="#7679B4"/>
<path d="M174.898 233.293C174.898 233.293 175.274 224.435 165.704 224.546C156.134 224.657 165.328 224.546 165.328 224.546C165.328 224.546 161.575 223.215 156.886 226.334C152.196 229.452 146.846 228.769 146.846 228.769C146.846 228.769 142.53 237.188 146.565 239.623C150.6 242.058 151.911 238.718 151.911 238.718C151.911 238.718 160.166 240.599 162.045 238.053C163.385 239.621 165.087 240.69 166.938 241.126C168.789 241.563 170.708 241.347 172.456 240.506C172.456 240.506 177.149 238.053 174.898 233.293Z" fill="#7679B4"/>
</g>
<defs>
<linearGradient id="paint0_linear_949_3" x1="166.407" y1="244.755" x2="166.407" y2="152.786" gradientUnits="userSpaceOnUse">
<stop stop-color="#808080" stop-opacity="0.25"/>
<stop offset="0.54" stop-color="#808080" stop-opacity="0.12"/>
<stop offset="1" stop-color="#808080" stop-opacity="0.1"/>
</linearGradient>
<clipPath id="clip0_949_3">
<rect width="300" height="260" fill="white"/>
</clipPath>
</defs>
</svg>
